<svg width="160" height="125" viewBox="0 0 160 125" fill="none" xmlns="http://www.w3.org/2000/svg">
<path d="M75.7812 19.8438C75.7812 20.25 75.6562 20.6094 75.4062 20.9219C75.1875 21.2031 74.9219 21.4844 74.6094 21.7656C74.3281 22.0469 74.0469 22.3594 73.7656 22.7031C73.4844 23.0156 73.2969 23.4062 73.2031 23.875H73.0625C72.8125 23.8437 72.5469 23.8281 72.2656 23.8281C72.0156 23.7969 71.7656 23.7812 71.5156 23.7812C70.2031 23.7812 68.9219 23.875 67.6719 24.0625C66.4219 24.25 65.1406 24.4062 63.8281 24.5312C63.5781 25.1875 63.3125 25.625 63.0312 25.8438C62.75 26.0312 62.4844 26.2344 62.2344 26.4531C62.0156 26.6719 61.8281 27.0312 61.6719 27.5312C61.5156 28 61.4375 28.8594 61.4375 30.1094C61.4375 31.4219 61.5 32.7031 61.625 33.9531C61.75 35.2031 61.8125 36.4688 61.8125 37.75C61.8125 38.7812 61.7188 39.8125 61.5312 40.8438C61.375 41.875 61.2969 42.9219 61.2969 43.9844C61.2969 45.3281 61.3906 46.6719 61.5781 48.0156C61.7656 49.3281 61.8594 50.6719 61.8594 52.0469C61.8594 53.7031 61.9688 55.3438 62.1875 56.9688C62.4062 58.5625 62.5156 60.1875 62.5156 61.8438C62.5156 62.3125 62.4531 63 62.3281 63.9062C62.2031 64.8125 62.0312 65.7656 61.8125 66.7656C61.625 67.7344 61.4062 68.6562 61.1562 69.5312C60.9375 70.375 60.7188 70.9688 60.5 71.3125C60.1875 71.8125 59.7656 72.1719 59.2344 72.3906C58.7031 72.6094 58.2344 72.9219 57.8281 73.3281C57.5781 73.5469 57.2969 73.875 56.9844 74.3125C56.6719 74.75 56.3438 75.2031 56 75.6719C55.6875 76.1094 55.3594 76.5156 55.0156 76.8906C54.6719 77.2344 54.3594 77.4375 54.0781 77.5C53.8594 77.75 53.6406 78.0156 53.4219 78.2969C53.2344 78.5469 53.0156 78.7969 52.7656 79.0469C52.4531 79.3281 52.25 79.5625 52.1562 79.75C52.0625 79.9062 51.9688 80.0469 51.875 80.1719C51.7812 80.2656 51.6406 80.3438 51.4531 80.4062C51.2969 80.4375 50.9844 80.4688 50.5156 80.5C49.8281 80.5625 49.1562 80.6875 48.5 80.875C47.875 81.0625 47.2344 81.2656 46.5781 81.4844C45.9531 81.6719 45.3125 81.8438 44.6562 82C44.0312 82.1875 43.375 82.2812 42.6875 82.2812C41.375 82.2812 40.1406 82.0938 38.9844 81.7188C37.8281 81.3125 36.6719 80.7969 35.5156 80.1719C35.1094 79.9531 34.7656 79.7969 34.4844 79.7031C34.2344 79.5781 34 79.4688 33.7812 79.375C33.5625 79.25 33.3281 79.0938 33.0781 78.9062C32.8594 78.6875 32.5938 78.3906 32.2812 78.0156C31.625 77.2031 30.9062 76.5156 30.125 75.9531C29.3438 75.3906 28.5312 74.7969 27.6875 74.1719C27.25 73.8594 26.9062 73.4531 26.6562 72.9531C26.4062 72.4219 26.2031 71.8594 26.0469 71.2656C25.9219 70.6719 25.8281 70.0781 25.7656 69.4844C25.7344 68.8594 25.7188 68.2969 25.7188 67.7969C25.7188 67.2031 25.7344 66.5625 25.7656 65.875C25.8281 65.1562 25.9219 64.4531 26.0469 63.7656C26.1719 63.0469 26.3281 62.3594 26.5156 61.7031C26.7344 61.0469 27 60.4531 27.3125 59.9219C27.6875 59.3281 28.0156 58.8125 28.2969 58.375C28.6094 57.9062 28.9531 57.5312 29.3281 57.25C29.7031 56.9688 30.1406 56.7656 30.6406 56.6406C31.1406 56.4844 31.7812 56.4062 32.5625 56.4062C33.6875 56.4062 34.6406 56.4688 35.4219 56.5938C36.2344 56.7188 36.9375 56.9688 37.5312 57.3438C38.125 57.7188 38.625 58.25 39.0312 58.9375C39.4375 59.625 39.8125 60.5312 40.1562 61.6562C40.3125 62.1875 40.4375 62.7344 40.5312 63.2969C40.625 63.8281 40.6719 64.3594 40.6719 64.8906C40.6719 65.4844 40.5625 66.0938 40.3438 66.7188C40.1562 67.3438 39.75 67.7656 39.125 67.9844C38.875 68.2969 38.6094 68.625 38.3281 68.9688C38.0469 69.2812 37.7812 69.625 37.5312 70C37.3125 70.3438 37.1094 70.7188 36.9219 71.125C36.7656 71.5 36.6875 71.8906 36.6875 72.2969C36.6875 73.1406 36.9531 73.8125 37.4844 74.3125C38.0469 74.7812 38.7031 75.1406 39.4531 75.3906C40.2344 75.6094 41.0156 75.75 41.7969 75.8125C42.6094 75.8438 43.25 75.8594 43.7188 75.8594C44.375 75.8594 44.9844 75.7031 45.5469 75.3906C46.1094 75.0781 46.6875 74.8125 47.2812 74.5938C47.8125 74.4062 48.375 74.25 48.9688 74.125C49.5625 73.9688 50.1406 73.8125 50.7031 73.6562C51.2656 73.4688 51.8125 73.25 52.3438 73C52.875 72.75 53.3594 72.4062 53.7969 71.9688C54.5156 69.5312 54.9219 67.0312 55.0156 64.4688C55.1406 61.875 55.2031 59.3125 55.2031 56.7812C55.1719 56.2188 55.1094 55.8594 55.0156 55.7031C54.9531 55.5156 54.875 55.3906 54.7812 55.3281C54.6875 55.2344 54.6094 55.1406 54.5469 55.0469C54.4844 54.9531 54.4531 54.7188 54.4531 54.3438C54.4531 53.8125 54.5156 53.2812 54.6406 52.75C54.7969 52.1875 54.875 51.625 54.875 51.0625C54.875 50.1562 54.7812 49.2812 54.5938 48.4375C54.4375 47.5625 54.3594 46.6719 54.3594 45.7656C54.3594 43.9844 54.4844 42.2344 54.7344 40.5156C55.0156 38.7656 55.1562 37 55.1562 35.2188C55.1562 34.8438 55.0469 34.5 54.8281 34.1875C54.6406 33.8438 54.5469 33.4844 54.5469 33.1094C54.5469 32.8281 54.625 32.5781 54.7812 32.3594C54.9375 32.1094 55.0156 31.8438 55.0156 31.5625C55.0156 31.2812 54.9219 30.9219 54.7344 30.4844C54.5469 30.0469 54.3281 29.5781 54.0781 29.0781C53.8594 28.5781 53.625 28.0781 53.375 27.5781C53.1562 27.0469 53.0156 26.5781 52.9531 26.1719C52.8594 25.5156 52.7344 25.0156 52.5781 24.6719C52.4219 24.2969 52.2188 24.0312 51.9688 23.875C51.7188 23.6875 51.3906 23.5781 50.9844 23.5469C50.5781 23.4844 50.0625 23.4219 49.4375 23.3594C48.5 23.2656 47.5625 23.2188 46.625 23.2188C45.7188 23.1875 44.7969 23.1719 43.8594 23.1719C43.3906 23.1719 43.0312 23.1406 42.7812 23.0781C42.5625 23.0156 42.375 22.9219 42.2188 22.7969C42.0938 22.6719 41.9688 22.5 41.8438 22.2812C41.7188 22.0625 41.5312 21.7812 41.2812 21.4375C40.9375 21 40.6094 20.5313 40.2969 20.0312C39.9844 19.5312 39.8281 18.9687 39.8281 18.3438C39.8281 17.8437 39.9531 17.4375 40.2031 17.125C40.4844 16.7813 40.8281 16.5156 41.2344 16.3281C41.6406 16.1094 42.0781 15.9687 42.5469 15.9062C43.0156 15.8125 43.4531 15.7656 43.8594 15.7656C44.6094 15.7656 45.3594 15.8125 46.1094 15.9062C46.8594 16 47.625 16.0469 48.4062 16.0469C49.0938 16.0469 49.6406 15.9687 50.0469 15.8125C50.4844 15.6563 50.8438 15.5 51.125 15.3438C51.4375 15.1562 51.75 14.9844 52.0625 14.8281C52.375 14.6719 52.7656 14.5938 53.2344 14.5938C54.0469 14.5938 54.8438 14.6875 55.625 14.875C56.4375 15.0625 57.25 15.1562 58.0625 15.1562C58.5 15.1562 58.9219 15.2187 59.3281 15.3438C59.7656 15.4375 60.1875 15.5625 60.5938 15.7188C61.0312 15.8438 61.4531 15.9687 61.8594 16.0938C62.2656 16.1875 62.6875 16.2344 63.125 16.2344C63.8438 16.2344 64.5312 16.1094 65.1875 15.8594C65.875 15.5781 66.5781 15.4375 67.2969 15.4375C67.8594 15.4375 68.4062 15.4844 68.9375 15.5781C69.4688 15.6719 70 15.7656 70.5312 15.8594C71.1562 15.9844 71.7188 16.0781 72.2188 16.1406C72.75 16.2031 73.2188 16.3281 73.625 16.5156C74.0625 16.6719 74.4375 16.9375 74.75 17.3125C75.0938 17.6562 75.3906 18.1875 75.6406 18.9062C75.7344 19.1875 75.7812 19.5 75.7812 19.8438ZM45.1719 18.4844C45.1719 18.3281 45.0938 18.1719 44.9375 18.0156C44.8125 17.8594 44.6562 17.7812 44.4688 17.7812C44.1562 17.7812 43.9688 17.9531 43.9062 18.2969C43.8438 18.6406 43.8125 18.9375 43.8125 19.1875C44.0312 19.1875 44.3125 19.1562 44.6562 19.0938C45 19.0313 45.1719 18.8281 45.1719 18.4844ZM131.609 51.8594C131.609 52.7969 131.516 53.8906 131.328 55.1406C131.141 56.3594 130.875 57.6562 130.531 59.0312C130.219 60.375 129.844 61.7656 129.406 63.2031C129 64.6406 128.562 66.0312 128.094 67.375C127.625 68.6875 127.141 69.9219 126.641 71.0781C126.172 72.2031 125.719 73.1562 125.281 73.9375C125.094 74.25 124.797 74.5781 124.391 74.9219C124.016 75.2344 123.625 75.5781 123.219 75.9531C122.812 76.2969 122.453 76.6406 122.141 76.9844C121.828 77.3281 121.672 77.6562 121.672 77.9688C121.422 78 121.031 78.0781 120.5 78.2031C119.969 78.2969 119.406 78.4375 118.812 78.625C118.25 78.7812 117.719 78.9688 117.219 79.1875C116.75 79.375 116.469 79.5625 116.375 79.75C116.031 80.4062 115.812 80.8438 115.719 81.0625C115.656 81.2812 115.578 81.4219 115.484 81.4844C115.391 81.5156 115.203 81.5312 114.922 81.5312C114.672 81.5 114.172 81.5625 113.422 81.7188C113.141 81.7812 112.781 81.875 112.344 82C111.938 82.125 111.5 82.25 111.031 82.375C110.594 82.5 110.172 82.5938 109.766 82.6562C109.359 82.75 109.031 82.7969 108.781 82.7969C108.094 82.7969 107.422 82.6875 106.766 82.4688C106.141 82.25 105.484 82.1406 104.797 82.1406C104.359 82.1406 103.969 82.2031 103.625 82.3281C102.469 82.7656 101.359 83.0781 100.297 83.2656C99.2656 83.4531 98.125 83.5469 96.875 83.5469L90.2656 82.6562C89.7656 82.7812 89.2656 82.8594 88.7656 82.8906C88.2656 82.9531 87.7656 82.9844 87.2656 82.9844C86.6406 82.9844 86.0156 82.9531 85.3906 82.8906C84.7969 82.8281 84.1875 82.75 83.5625 82.6562C83.4688 82.1875 83.3125 81.75 83.0938 81.3438C82.9062 80.9062 82.7188 80.4688 82.5312 80.0312C82.3438 79.5938 82.1719 79.1562 82.0156 78.7188C81.8594 78.25 81.7812 77.7812 81.7812 77.3125C81.7812 76.5 81.9844 75.9219 82.3906 75.5781C82.7969 75.2031 83.3125 74.9531 83.9375 74.8281C84.5625 74.6719 85.2188 74.5625 85.9062 74.5C86.625 74.4062 87.2969 74.2188 87.9219 73.9375C88.5469 73.6562 89.0625 73.2188 89.4688 72.625C89.875 72.0312 90.0781 71.1406 90.0781 69.9531C90.0781 69.2344 90.0156 68.5156 89.8906 67.7969C89.7969 67.0781 89.6719 66.3594 89.5156 65.6406C89.3906 64.8906 89.2656 64.1562 89.1406 63.4375C89.0469 62.7188 89 62 89 61.2812C89 60.75 89.0469 60.2344 89.1406 59.7344C89.2344 59.2031 89.2812 58.6719 89.2812 58.1406C89.2812 57.1719 89.2031 56.2188 89.0469 55.2812C88.9219 54.3125 88.8594 53.3438 88.8594 52.375C88.8594 51.25 88.9219 50.1406 89.0469 49.0469C89.1719 47.9219 89.2344 46.7969 89.2344 45.6719C89.2344 44.6094 89.125 43.5781 88.9062 42.5781C88.7188 41.5469 88.625 40.4844 88.625 39.3906C88.625 38.7969 88.6406 38.2031 88.6719 37.6094C88.7031 37.0156 88.7188 36.4219 88.7188 35.8281C88.7188 35.1406 88.6875 34.4844 88.625 33.8594C88.5625 33.2031 88.4375 32.5469 88.25 31.8906C88.0312 31.1094 87.9062 30.3438 87.875 29.5938C87.8438 28.8438 87.75 28.1719 87.5938 27.5781C87.4375 26.9531 87.1406 26.4219 86.7031 25.9844C86.2656 25.5156 85.5312 25.1719 84.5 24.9531C84.1562 24.8906 83.8906 24.7969 83.7031 24.6719C83.5469 24.5156 83.3906 24.375 83.2344 24.25C83.0781 24.0938 82.875 23.9531 82.625 23.8281C82.4062 23.7031 82.0625 23.6094 81.5938 23.5469C80.2188 23.3594 79.5312 22.5938 79.5312 21.25C79.5312 20.5 79.6719 19.8438 79.9531 19.2812C80.2344 18.6875 80.5938 18.1562 81.0312 17.6875C81.4688 17.2188 81.9531 16.7969 82.4844 16.4219C83.0469 16.0156 83.5938 15.6094 84.125 15.2031C84.9375 14.5781 85.7031 14.2031 86.4219 14.0781C87.1406 13.9219 87.9062 13.8438 88.7188 13.8438H90.7344C91.6406 13.8438 92.5312 13.8125 93.4062 13.75C94.3125 13.6562 95.2188 13.6094 96.125 13.6094C96.6562 13.6094 97.1875 13.6406 97.7188 13.7031C98.2812 13.7656 98.8281 13.875 99.3594 14.0312C99.6406 14.125 99.9062 14.2344 100.156 14.3594C100.438 14.4531 100.719 14.5 101 14.5C101.438 14.5 101.812 14.375 102.125 14.125C102.438 13.8438 102.719 13.7031 102.969 13.7031C103.031 13.7031 103.062 13.7344 103.062 13.7969C103.062 13.8594 103.047 13.9375 103.016 14.0312C103.016 14.0937 103.016 14.1563 103.016 14.2188C103.016 14.4062 103.141 14.5 103.391 14.5C103.547 14.5 103.656 14.4062 103.719 14.2188C103.812 14.0312 104 13.9062 104.281 13.8438C104.5 13.9375 104.672 14.0469 104.797 14.1719C104.922 14.2656 105.031 14.3594 105.125 14.4531C105.25 14.5469 105.391 14.625 105.547 14.6875C105.734 14.75 105.969 14.7812 106.25 14.7812C106.906 14.7812 107.562 14.7344 108.219 14.6406C108.875 14.5156 109.531 14.4531 110.188 14.4531C111.031 14.4531 111.812 14.5938 112.531 14.875C113.25 15.1562 113.922 15.5156 114.547 15.9531C115.203 16.3594 115.828 16.8281 116.422 17.3594C117.016 17.8906 117.609 18.4062 118.203 18.9062C118.641 19.2812 119.078 19.5781 119.516 19.7969C119.984 19.9844 120.422 20.1875 120.828 20.4062C121.234 20.5938 121.625 20.8437 122 21.1562C122.375 21.4375 122.703 21.875 122.984 22.4688C123.297 23.125 123.656 23.7656 124.062 24.3906C124.5 24.9844 124.922 25.5781 125.328 26.1719C125.766 26.7344 126.188 27.3281 126.594 27.9531C127 28.5469 127.359 29.1875 127.672 29.875C128.453 31.6562 129 33.5312 129.312 35.5C129.656 37.4375 130 39.3594 130.344 41.2656C130.5 42.0781 130.672 42.9062 130.859 43.75C131.047 44.5625 131.141 45.375 131.141 46.1875C131.141 46.625 131.062 47.0469 130.906 47.4531C130.75 47.8594 130.672 48.2812 130.672 48.7188C130.672 49 130.719 49.25 130.812 49.4688C130.906 49.6875 131.016 49.9062 131.141 50.125C131.266 50.3438 131.375 50.5938 131.469 50.875C131.562 51.1562 131.609 51.4844 131.609 51.8594ZM123.781 48.7188C123.781 47.5 123.609 46.3125 123.266 45.1562C122.922 44 122.391 42.9219 121.672 41.9219C122.016 41.5781 122.234 41.1719 122.328 40.7031C122.422 40.2344 122.469 39.7812 122.469 39.3438C122.469 38.875 122.438 38.4062 122.375 37.9375C122.344 37.4688 122.328 37.0156 122.328 36.5781C122.328 36.3281 122.234 36.1094 122.047 35.9219C121.891 35.7344 121.703 35.5625 121.484 35.4062C121.297 35.2188 121.094 35.0469 120.875 34.8906C120.656 34.7031 120.5 34.4844 120.406 34.2344C120.281 33.9219 120.188 33.6562 120.125 33.4375C120.094 33.1875 120.062 32.9531 120.031 32.7344C120 32.5156 119.938 32.2812 119.844 32.0312C119.75 31.7813 119.594 31.4844 119.375 31.1406C119.219 30.8906 119.094 30.6563 119 30.4375C118.906 30.1875 118.859 29.8906 118.859 29.5469C118.859 29.2344 118.906 28.9062 119 28.5625C118.875 28.3125 118.672 28.1094 118.391 27.9531C118.109 27.7656 117.797 27.625 117.453 27.5312C117.078 27.4062 116.656 27.3125 116.188 27.25C115.719 27.25 115.219 27.1094 114.688 26.8281C114.188 26.5469 113.656 26.2344 113.094 25.8906C112.531 25.5469 111.953 25.2344 111.359 24.9531C110.797 24.6719 110.219 24.5312 109.625 24.5312C108.719 24.5312 107.828 24.6094 106.953 24.7656C106.078 24.9219 105.188 25.0625 104.281 25.1875C103.594 25.2812 102.844 25.3437 102.031 25.375C101.219 25.375 100.453 25.4531 99.7344 25.6094C99.0469 25.7656 98.4688 26.0625 98 26.5C97.5312 26.9063 97.2969 27.5625 97.2969 28.4688C97.2969 29.5625 97.3594 30.6719 97.4844 31.7969C97.6406 32.9219 97.7188 34.0781 97.7188 35.2656C97.7188 37.7344 97.6094 40.2031 97.3906 42.6719C97.2031 45.1094 97.1094 47.5781 97.1094 50.0781C97.1094 51.2344 97.1719 52.3906 97.2969 53.5469C97.4219 54.6719 97.4844 55.8281 97.4844 57.0156C97.4844 58.5469 97.3594 60.0625 97.1094 61.5625C96.8906 63.0625 96.7812 64.5781 96.7812 66.1094C96.7812 66.7344 96.7812 67.4062 96.7812 68.125C96.7812 68.8438 96.8438 69.5312 96.9688 70.1875C97.0938 70.8438 97.3281 71.4375 97.6719 71.9688C98.0156 72.5 98.5312 72.8906 99.2188 73.1406C100.188 73.4844 101.141 73.8281 102.078 74.1719C103.047 74.4844 104.062 74.6406 105.125 74.6406C105.75 74.6406 106.359 74.5 106.953 74.2188C107.547 73.9062 108.156 73.6562 108.781 73.4688C109.188 73.3438 109.641 73.2344 110.141 73.1406C110.672 73.0156 111.188 72.8906 111.688 72.7656C112.188 72.6094 112.656 72.4219 113.094 72.2031C113.562 71.9531 113.953 71.6562 114.266 71.3125C114.734 70.7812 115.188 70.3125 115.625 69.9062C116.062 69.5 116.672 69.2188 117.453 69.0625C117.828 69 118.062 68.875 118.156 68.6875C118.281 68.4688 118.359 68.2344 118.391 67.9844C118.453 67.7031 118.531 67.4219 118.625 67.1406C118.719 66.8281 118.922 66.5625 119.234 66.3438C119.734 65.9688 120.109 65.5312 120.359 65.0312C120.641 64.5312 120.844 64 120.969 63.4375C121.094 62.875 121.188 62.3125 121.25 61.75C121.344 61.1562 121.469 60.5781 121.625 60.0156C121.969 58.7656 122.359 57.5 122.797 56.2188C123.266 54.9375 123.5 53.6406 123.5 52.3281C123.5 51.9844 123.422 51.6875 123.266 51.4375C123.109 51.1562 123.031 50.8438 123.031 50.5C123.031 50.3125 123.062 50.2031 123.125 50.1719C123.219 50.1094 123.312 50.0469 123.406 49.9844C123.5 49.8906 123.578 49.7656 123.641 49.6094C123.734 49.4531 123.781 49.1562 123.781 48.7188Z" fill="#FD7014"/>
</svg>
