<svg width="559" height="386" viewBox="0 0 559 386" fill="none" xmlns="http://www.w3.org/2000/svg">
<path d="M264.119 37.3887C264.119 38.8698 263.663 40.18 262.752 41.3193C261.954 42.3447 260.986 43.3701 259.847 44.3955C258.821 45.4209 257.796 46.5602 256.771 47.8135C255.745 48.9528 255.062 50.377 254.72 52.0859H254.207C253.296 51.972 252.327 51.915 251.302 51.915C250.39 51.8011 249.479 51.7441 248.567 51.7441C243.782 51.7441 239.111 52.0859 234.554 52.7695C229.996 53.4531 225.325 54.0228 220.54 54.4785C219.629 56.8711 218.66 58.4661 217.635 59.2637C216.609 59.9473 215.641 60.6878 214.729 61.4854C213.932 62.2829 213.248 63.5931 212.679 65.416C212.109 67.125 211.824 70.2581 211.824 74.8154C211.824 79.6006 212.052 84.2718 212.508 88.8291C212.964 93.3864 213.191 98.0007 213.191 102.672C213.191 106.432 212.85 110.191 212.166 113.951C211.596 117.711 211.312 121.528 211.312 125.401C211.312 130.3 211.653 135.2 212.337 140.099C213.021 144.884 213.362 149.783 213.362 154.796C213.362 160.834 213.761 166.816 214.559 172.74C215.356 178.551 215.755 184.475 215.755 190.514C215.755 192.223 215.527 194.729 215.071 198.033C214.616 201.337 213.989 204.812 213.191 208.458C212.508 211.99 211.71 215.351 210.799 218.541C210.001 221.617 209.204 223.782 208.406 225.035C207.267 226.858 205.729 228.168 203.792 228.966C201.855 229.763 200.146 230.903 198.665 232.384C197.754 233.181 196.728 234.378 195.589 235.973C194.45 237.568 193.253 239.22 192 240.929C190.861 242.524 189.664 244.005 188.411 245.372C187.158 246.625 186.019 247.366 184.993 247.594C184.196 248.505 183.398 249.474 182.601 250.499C181.917 251.41 181.119 252.322 180.208 253.233C179.069 254.259 178.328 255.113 177.986 255.797C177.645 256.367 177.303 256.879 176.961 257.335C176.619 257.677 176.106 257.962 175.423 258.189C174.853 258.303 173.714 258.417 172.005 258.531C169.498 258.759 167.049 259.215 164.656 259.898C162.378 260.582 160.042 261.323 157.649 262.12C155.371 262.804 153.035 263.43 150.643 264C148.364 264.684 145.971 265.025 143.465 265.025C138.68 265.025 134.179 264.342 129.964 262.975C125.748 261.493 121.533 259.614 117.317 257.335C115.836 256.537 114.583 255.968 113.558 255.626C112.646 255.17 111.792 254.771 110.994 254.43C110.197 253.974 109.342 253.404 108.431 252.721C107.633 251.923 106.665 250.841 105.525 249.474C103.133 246.511 100.512 244.005 97.6641 241.954C94.8158 239.903 91.8535 237.739 88.7773 235.46C87.1823 234.321 85.929 232.84 85.0176 231.017C84.1061 229.08 83.3656 227.029 82.7959 224.864C82.3402 222.7 81.9984 220.535 81.7705 218.37C81.6566 216.091 81.5996 214.041 81.5996 212.218C81.5996 210.053 81.6566 207.717 81.7705 205.211C81.9984 202.59 82.3402 200.027 82.7959 197.521C83.2516 194.9 83.8213 192.394 84.5049 190.001C85.3024 187.608 86.2708 185.444 87.4102 183.507C88.7773 181.342 89.9736 179.462 90.999 177.867C92.1383 176.158 93.3916 174.791 94.7588 173.766C96.126 172.74 97.721 172 99.5439 171.544C101.367 170.974 103.702 170.689 106.551 170.689C110.652 170.689 114.127 170.917 116.976 171.373C119.938 171.829 122.501 172.74 124.666 174.107C126.831 175.475 128.654 177.411 130.135 179.918C131.616 182.424 132.983 185.729 134.236 189.83C134.806 191.767 135.262 193.761 135.604 195.812C135.945 197.748 136.116 199.685 136.116 201.622C136.116 203.787 135.717 206.008 134.92 208.287C134.236 210.566 132.755 212.104 130.477 212.901C129.565 214.041 128.597 215.237 127.571 216.49C126.546 217.63 125.577 218.883 124.666 220.25C123.868 221.503 123.128 222.87 122.444 224.352C121.875 225.719 121.59 227.143 121.59 228.624C121.59 231.7 122.558 234.15 124.495 235.973C126.546 237.682 128.938 238.992 131.673 239.903C134.521 240.701 137.369 241.214 140.218 241.441C143.18 241.555 145.516 241.612 147.225 241.612C149.617 241.612 151.839 241.043 153.89 239.903C155.94 238.764 158.048 237.796 160.213 236.998C162.15 236.314 164.201 235.745 166.365 235.289C168.53 234.719 170.638 234.15 172.688 233.58C174.739 232.896 176.733 232.099 178.67 231.188C180.607 230.276 182.373 229.023 183.968 227.428C186.588 218.541 188.069 209.426 188.411 200.084C188.867 190.628 189.095 181.285 189.095 172.057C188.981 170.006 188.753 168.696 188.411 168.126C188.183 167.442 187.898 166.987 187.557 166.759C187.215 166.417 186.93 166.075 186.702 165.733C186.474 165.392 186.36 164.537 186.36 163.17C186.36 161.233 186.588 159.296 187.044 157.359C187.614 155.309 187.898 153.258 187.898 151.207C187.898 147.903 187.557 144.713 186.873 141.637C186.303 138.447 186.019 135.2 186.019 131.896C186.019 125.401 186.474 119.021 187.386 112.755C188.411 106.375 188.924 99.9375 188.924 93.4434C188.924 92.0762 188.525 90.8229 187.728 89.6836C187.044 88.4303 186.702 87.1201 186.702 85.7529C186.702 84.7275 186.987 83.8161 187.557 83.0186C188.126 82.1071 188.411 81.1387 188.411 80.1133C188.411 79.0879 188.069 77.7777 187.386 76.1826C186.702 74.5876 185.905 72.8786 184.993 71.0557C184.196 69.2327 183.341 67.4098 182.43 65.5869C181.632 63.6501 181.119 61.9411 180.892 60.46C180.55 58.0674 180.094 56.2445 179.524 54.9912C178.955 53.624 178.214 52.6556 177.303 52.0859C176.391 51.4023 175.195 51.0036 173.714 50.8896C172.233 50.6618 170.353 50.4339 168.074 50.2061C164.656 49.8643 161.238 49.6934 157.82 49.6934C154.516 49.5794 151.155 49.5225 147.737 49.5225C146.028 49.5225 144.718 49.4085 143.807 49.1807C143.009 48.9528 142.326 48.611 141.756 48.1553C141.3 47.6995 140.844 47.0729 140.389 46.2754C139.933 45.4779 139.249 44.4525 138.338 43.1992C137.085 41.6042 135.888 39.8952 134.749 38.0723C133.61 36.2493 133.04 34.1986 133.04 31.9199C133.04 30.097 133.496 28.6159 134.407 27.4766C135.433 26.2233 136.686 25.2549 138.167 24.5713C139.648 23.7738 141.243 23.2611 142.952 23.0332C144.661 22.6914 146.256 22.5205 147.737 22.5205C150.472 22.5205 153.206 22.6914 155.94 23.0332C158.675 23.375 161.466 23.5459 164.314 23.5459C166.821 23.5459 168.815 23.2611 170.296 22.6914C171.891 22.1217 173.201 21.5521 174.227 20.9824C175.366 20.2988 176.505 19.6722 177.645 19.1025C178.784 18.5329 180.208 18.248 181.917 18.248C184.879 18.248 187.785 18.5898 190.633 19.2734C193.595 19.957 196.557 20.2988 199.52 20.2988C201.115 20.2988 202.653 20.5267 204.134 20.9824C205.729 21.3242 207.267 21.7799 208.748 22.3496C210.343 22.8053 211.881 23.2611 213.362 23.7168C214.843 24.0586 216.382 24.2295 217.977 24.2295C220.597 24.2295 223.104 23.7738 225.496 22.8623C228.003 21.8369 230.566 21.3242 233.187 21.3242C235.237 21.3242 237.231 21.4951 239.168 21.8369C241.105 22.1787 243.042 22.5205 244.979 22.8623C247.257 23.318 249.308 23.6598 251.131 23.8877C253.068 24.1156 254.777 24.5713 256.258 25.2549C257.853 25.8245 259.22 26.793 260.359 28.1602C261.613 29.4134 262.695 31.3503 263.606 33.9707C263.948 34.9961 264.119 36.1354 264.119 37.3887ZM152.522 32.4326C152.522 31.863 152.238 31.2933 151.668 30.7236C151.212 30.154 150.643 29.8691 149.959 29.8691C148.82 29.8691 148.136 30.4958 147.908 31.749C147.68 33.0023 147.566 34.0846 147.566 34.9961C148.364 34.9961 149.389 34.8822 150.643 34.6543C151.896 34.4264 152.522 33.6859 152.522 32.4326ZM467.659 154.112C467.659 157.53 467.317 161.518 466.634 166.075C465.95 170.519 464.982 175.247 463.729 180.26C462.589 185.159 461.222 190.229 459.627 195.47C458.146 200.711 456.551 205.781 454.842 210.68C453.133 215.465 451.367 219.965 449.544 224.181C447.835 228.282 446.183 231.757 444.588 234.605C443.904 235.745 442.822 236.941 441.341 238.194C439.974 239.334 438.549 240.587 437.068 241.954C435.587 243.207 434.277 244.461 433.138 245.714C431.998 246.967 431.429 248.163 431.429 249.303C430.517 249.417 429.093 249.701 427.156 250.157C425.219 250.499 423.169 251.012 421.004 251.695C418.953 252.265 417.016 252.949 415.193 253.746C413.484 254.43 412.459 255.113 412.117 255.797C410.864 258.189 410.066 259.785 409.725 260.582C409.497 261.38 409.212 261.892 408.87 262.12C408.528 262.234 407.845 262.291 406.819 262.291C405.908 262.177 404.085 262.405 401.351 262.975C400.325 263.202 399.015 263.544 397.42 264C395.939 264.456 394.344 264.911 392.635 265.367C391.04 265.823 389.502 266.165 388.021 266.393C386.539 266.734 385.343 266.905 384.432 266.905C381.925 266.905 379.476 266.507 377.083 265.709C374.804 264.911 372.412 264.513 369.905 264.513C368.31 264.513 366.886 264.741 365.633 265.196C361.417 266.791 357.373 267.931 353.499 268.614C349.739 269.298 345.581 269.64 341.023 269.64L316.927 266.393C315.104 266.848 313.281 267.133 311.458 267.247C309.635 267.475 307.812 267.589 305.989 267.589C303.711 267.589 301.432 267.475 299.153 267.247C296.989 267.019 294.767 266.734 292.488 266.393C292.146 264.684 291.577 263.089 290.779 261.607C290.096 260.012 289.412 258.417 288.729 256.822C288.045 255.227 287.418 253.632 286.849 252.037C286.279 250.328 285.994 248.619 285.994 246.91C285.994 243.948 286.735 241.84 288.216 240.587C289.697 239.22 291.577 238.308 293.855 237.853C296.134 237.283 298.527 236.884 301.033 236.656C303.654 236.314 306.103 235.631 308.382 234.605C310.66 233.58 312.54 231.985 314.021 229.82C315.503 227.656 316.243 224.409 316.243 220.079C316.243 217.459 316.015 214.838 315.56 212.218C315.218 209.597 314.762 206.977 314.192 204.356C313.737 201.622 313.281 198.945 312.825 196.324C312.483 193.704 312.312 191.083 312.312 188.463C312.312 186.526 312.483 184.646 312.825 182.823C313.167 180.886 313.338 178.95 313.338 177.013C313.338 173.481 313.053 170.006 312.483 166.588C312.028 163.056 311.8 159.524 311.8 155.992C311.8 151.891 312.028 147.846 312.483 143.858C312.939 139.757 313.167 135.655 313.167 131.554C313.167 127.68 312.768 123.92 311.971 120.274C311.287 116.515 310.945 112.641 310.945 108.653C310.945 106.489 311.002 104.324 311.116 102.159C311.23 99.9945 311.287 97.8298 311.287 95.665C311.287 93.1585 311.173 90.766 310.945 88.4873C310.717 86.0947 310.262 83.7021 309.578 81.3096C308.781 78.4613 308.325 75.6699 308.211 72.9355C308.097 70.2012 307.755 67.7516 307.186 65.5869C306.616 63.3083 305.534 61.3714 303.938 59.7764C302.343 58.0674 299.666 56.8141 295.906 56.0166C294.653 55.7887 293.685 55.4469 293.001 54.9912C292.431 54.4215 291.862 53.9089 291.292 53.4531C290.722 52.8835 289.982 52.3708 289.07 51.915C288.273 51.4593 287.02 51.1175 285.311 50.8896C280.298 50.2061 277.791 47.4147 277.791 42.5156C277.791 39.7812 278.304 37.3887 279.329 35.3379C280.354 33.1732 281.665 31.2363 283.26 29.5273C284.855 27.8184 286.621 26.2803 288.558 24.9131C290.608 23.432 292.602 21.9508 294.539 20.4697C297.501 18.1911 300.293 16.8239 302.913 16.3682C305.534 15.7985 308.325 15.5137 311.287 15.5137H318.636C321.94 15.5137 325.187 15.3997 328.377 15.1719C331.681 14.8301 334.985 14.6592 338.289 14.6592C340.226 14.6592 342.163 14.7731 344.1 15.001C346.15 15.2288 348.144 15.6276 350.081 16.1973C351.106 16.5391 352.075 16.9378 352.986 17.3936C354.012 17.7354 355.037 17.9062 356.062 17.9062C357.658 17.9062 359.025 17.4505 360.164 16.5391C361.303 15.5137 362.329 15.001 363.24 15.001C363.468 15.001 363.582 15.1149 363.582 15.3428C363.582 15.5706 363.525 15.8555 363.411 16.1973C363.411 16.4251 363.411 16.653 363.411 16.8809C363.411 17.5645 363.867 17.9062 364.778 17.9062C365.348 17.9062 365.747 17.5645 365.975 16.8809C366.316 16.1973 367 15.7415 368.025 15.5137C368.823 15.8555 369.45 16.2542 369.905 16.71C370.361 17.0518 370.76 17.3936 371.102 17.7354C371.557 18.0771 372.07 18.362 372.64 18.5898C373.323 18.8177 374.178 18.9316 375.203 18.9316C377.596 18.9316 379.988 18.7607 382.381 18.4189C384.773 17.9632 387.166 17.7354 389.559 17.7354C392.635 17.7354 395.483 18.248 398.104 19.2734C400.724 20.2988 403.174 21.609 405.452 23.2041C407.845 24.6852 410.123 26.3942 412.288 28.3311C414.453 30.2679 416.618 32.1478 418.782 33.9707C420.377 35.3379 421.972 36.4202 423.567 37.2178C425.276 37.9014 426.871 38.6419 428.353 39.4395C429.834 40.123 431.258 41.0345 432.625 42.1738C433.992 43.1992 435.188 44.7943 436.214 46.959C437.353 49.3516 438.663 51.6872 440.145 53.9658C441.74 56.1305 443.278 58.2952 444.759 60.46C446.354 62.5107 447.892 64.6755 449.373 66.9541C450.854 69.1188 452.164 71.4544 453.304 73.9609C456.152 80.4551 458.146 87.291 459.285 94.4688C460.538 101.533 461.792 108.539 463.045 115.489C463.615 118.451 464.241 121.471 464.925 124.547C465.608 127.509 465.95 130.471 465.95 133.434C465.95 135.029 465.665 136.567 465.096 138.048C464.526 139.529 464.241 141.067 464.241 142.662C464.241 143.688 464.412 144.599 464.754 145.396C465.096 146.194 465.494 146.992 465.95 147.789C466.406 148.587 466.805 149.498 467.146 150.523C467.488 151.549 467.659 152.745 467.659 154.112ZM439.119 142.662C439.119 138.219 438.493 133.889 437.239 129.674C435.986 125.458 434.049 121.528 431.429 117.882C432.682 116.629 433.479 115.147 433.821 113.438C434.163 111.729 434.334 110.077 434.334 108.482C434.334 106.773 434.22 105.064 433.992 103.355C433.878 101.646 433.821 99.9945 433.821 98.3994C433.821 97.488 433.479 96.6904 432.796 96.0068C432.226 95.3232 431.543 94.6966 430.745 94.127C430.062 93.4434 429.321 92.8167 428.523 92.2471C427.726 91.5635 427.156 90.766 426.814 89.8545C426.359 88.7152 426.017 87.7467 425.789 86.9492C425.675 86.0378 425.561 85.1833 425.447 84.3857C425.333 83.5882 425.105 82.7337 424.764 81.8223C424.422 80.9108 423.852 79.8285 423.055 78.5752C422.485 77.6637 422.029 76.8092 421.688 76.0117C421.346 75.1003 421.175 74.0179 421.175 72.7646C421.175 71.6253 421.346 70.429 421.688 69.1758C421.232 68.2643 420.491 67.5238 419.466 66.9541C418.44 66.2705 417.301 65.7578 416.048 65.416C414.681 64.9603 413.143 64.6185 411.434 64.3906C409.725 64.3906 407.902 63.8779 405.965 62.8525C404.142 61.8271 402.205 60.6878 400.154 59.4346C398.104 58.1813 395.996 57.042 393.831 56.0166C391.78 54.9912 389.673 54.4785 387.508 54.4785C384.204 54.4785 380.957 54.7633 377.767 55.333C374.576 55.9027 371.329 56.4154 368.025 56.8711C365.519 57.2129 362.785 57.4408 359.822 57.5547C356.86 57.5547 354.069 57.8395 351.448 58.4092C348.942 58.9788 346.834 60.0612 345.125 61.6562C343.416 63.1374 342.562 65.5299 342.562 68.834C342.562 72.8216 342.789 76.8662 343.245 80.9678C343.815 85.0693 344.1 89.2848 344.1 93.6143C344.1 102.615 343.701 111.616 342.903 120.616C342.22 129.503 341.878 138.504 341.878 147.618C341.878 151.834 342.106 156.049 342.562 160.265C343.017 164.366 343.245 168.582 343.245 172.911C343.245 178.494 342.789 184.02 341.878 189.488C341.08 194.957 340.682 200.483 340.682 206.065C340.682 208.344 340.682 210.794 340.682 213.414C340.682 216.035 340.91 218.541 341.365 220.934C341.821 223.326 342.675 225.491 343.929 227.428C345.182 229.365 347.062 230.789 349.568 231.7C353.1 232.953 356.575 234.207 359.993 235.46C363.525 236.599 367.228 237.169 371.102 237.169C373.38 237.169 375.602 236.656 377.767 235.631C379.931 234.492 382.153 233.58 384.432 232.896C385.913 232.441 387.565 232.042 389.388 231.7C391.325 231.244 393.204 230.789 395.027 230.333C396.85 229.763 398.559 229.08 400.154 228.282C401.863 227.371 403.287 226.288 404.427 225.035C406.136 223.098 407.788 221.389 409.383 219.908C410.978 218.427 413.2 217.402 416.048 216.832C417.415 216.604 418.27 216.148 418.611 215.465C419.067 214.667 419.352 213.813 419.466 212.901C419.694 211.876 419.979 210.851 420.32 209.825C420.662 208.686 421.403 207.717 422.542 206.92C424.365 205.553 425.732 203.958 426.644 202.135C427.669 200.312 428.41 198.375 428.865 196.324C429.321 194.273 429.663 192.223 429.891 190.172C430.232 188.007 430.688 185.899 431.258 183.849C432.511 179.291 433.935 174.677 435.53 170.006C437.239 165.335 438.094 160.606 438.094 155.821C438.094 154.568 437.809 153.486 437.239 152.574C436.67 151.549 436.385 150.41 436.385 149.156C436.385 148.473 436.499 148.074 436.727 147.96C437.068 147.732 437.41 147.504 437.752 147.276C438.094 146.935 438.379 146.479 438.606 145.909C438.948 145.34 439.119 144.257 439.119 142.662Z" fill="#FD7014"/>
</svg>
